<svg width="1697" height="688" viewBox="0 0 1697 688" fill="none" xmlns="http://www.w3.org/2000/svg">
<rect width="1697" height="688" fill="black"/>
<path d="M635.075 484L756.35 214.5H805.63L927.29 484H874.93L770.595 241.065H790.615L686.665 484H635.075ZM690.9 421.63L704.375 382.36H849.905L863.38 421.63H690.9ZM961.564 484V214.5H1072.44C1096.31 214.5 1116.72 218.35 1133.66 226.05C1150.86 233.75 1164.07 244.787 1173.31 259.16C1182.55 273.533 1187.17 290.602 1187.17 310.365C1187.17 330.128 1182.55 347.197 1173.31 361.57C1164.07 375.687 1150.86 386.595 1133.66 394.295C1116.72 401.738 1096.31 405.46 1072.44 405.46H989.284L1011.61 382.745V484H961.564ZM1137.89 484L1069.75 386.21H1123.26L1191.79 484H1137.89ZM1011.61 388.135L989.284 364.265H1070.13C1092.21 364.265 1108.76 359.517 1119.8 350.02C1131.09 340.523 1136.74 327.305 1136.74 310.365C1136.74 293.168 1131.09 279.95 1119.8 270.71C1108.76 261.47 1092.21 256.85 1070.13 256.85H989.284L1011.61 232.21V388.135ZM1367.91 487.85C1347.38 487.85 1328.26 484.513 1310.55 477.84C1293.09 470.91 1277.82 461.285 1264.73 448.965C1251.9 436.388 1241.89 421.63 1234.7 404.69C1227.51 387.75 1223.92 369.27 1223.92 349.25C1223.92 329.23 1227.51 310.75 1234.7 293.81C1241.89 276.87 1252.03 262.24 1265.12 249.92C1278.21 237.343 1293.48 227.718 1310.93 221.045C1328.38 214.115 1347.51 210.65 1368.3 210.65C1390.37 210.65 1410.52 214.5 1428.74 222.2C1446.96 229.643 1462.36 240.808 1474.94 255.695L1442.6 286.11C1432.85 275.587 1421.94 267.758 1409.88 262.625C1397.81 257.235 1384.72 254.54 1370.61 254.54C1356.49 254.54 1343.53 256.85 1331.72 261.47C1320.17 266.09 1310.03 272.635 1301.31 281.105C1292.84 289.575 1286.16 299.585 1281.29 311.135C1276.67 322.685 1274.36 335.39 1274.36 349.25C1274.36 363.11 1276.67 375.815 1281.29 387.365C1286.16 398.915 1292.84 408.925 1301.31 417.395C1310.03 425.865 1320.17 432.41 1331.72 437.03C1343.53 441.65 1356.49 443.96 1370.61 443.96C1384.72 443.96 1397.81 441.393 1409.88 436.26C1421.94 430.87 1432.85 422.785 1442.6 412.005L1474.94 442.805C1462.36 457.435 1446.96 468.6 1428.74 476.3C1410.52 484 1390.24 487.85 1367.91 487.85Z" fill="white"/>
<circle cx="345.5" cy="344.5" r="162.5" fill="white"/>
<mask id="mask0_39_8" style="mask-type:alpha" maskUnits="userSpaceOnUse" x="111" y="139" width="234" height="289">
<rect x="89" y="181.585" width="114" height="325" rx="57" transform="rotate(-34.5092 89 181.585)" fill="#D9D9D9"/>
</mask>
<g mask="url(#mask0_39_8)">
<circle cx="345.5" cy="344.5" r="162.5" fill="black"/>
</g>
</svg>
